<svg width="154" height="154" viewBox="0 0 154 154" fill="none" xmlns="http://www.w3.org/2000/svg">
<rect x="0.5" y="0.5" width="152.494" height="152.494" stroke="#00768F"/>
<path d="M76.747 137.801C110.436 137.801 137.746 110.491 137.746 76.8022C137.746 43.1134 110.436 15.8032 76.747 15.8032C43.0582 15.8032 15.748 43.1134 15.748 76.8022C15.748 110.491 43.0582 137.801 76.747 137.801Z" stroke="#00768F" stroke-miterlimit="10"/>
<path d="M98.0621 17.0872C98.5045 16.8182 99.1015 16.7284 99.8619 17.0413L99.8658 17.0432C108.686 20.6022 116.618 26.0532 123.101 33.012C129.585 39.9709 134.463 48.268 137.39 57.3176V57.3186C137.647 58.1053 137.523 58.7363 137.216 59.2102C136.901 59.6975 136.365 60.0609 135.739 60.2317C134.481 60.5748 133.049 60.1157 132.555 58.6047H132.556C129.901 50.3959 125.493 42.8618 119.638 36.5247C113.784 30.1876 106.622 25.1984 98.649 21.9026H98.6481C97.174 21.2959 96.7318 19.7773 97.0768 18.5081C97.2479 17.8786 97.6024 17.3668 98.0621 17.0872Z" fill="#00768F" stroke="#00768F"/>
<path d="M98.1113 43.6047H55.3826V109.889H98.1113V43.6047Z" stroke="#00768F" stroke-miterlimit="10"/>
<path d="M76.747 62.5585C80.0697 62.5585 82.7633 59.8649 82.7633 56.5422C82.7633 53.2195 80.0697 50.5259 76.747 50.5259C73.4243 50.5259 70.7307 53.2195 70.7307 56.5422C70.7307 59.8649 73.4243 62.5585 76.747 62.5585Z" stroke="#00768F" stroke-miterlimit="10"/>
<path d="M76.7467 79.8254C80.9272 79.8254 84.3169 83.2143 84.317 87.3948C84.317 91.5754 80.9273 94.9651 76.7467 94.9651C72.5662 94.9649 69.1774 91.5753 69.1774 87.3948C69.1775 83.2144 72.5663 79.8256 76.7467 79.8254Z" fill="#00768F" stroke="#00768F"/>
<path d="M76.7469 102.916C85.3192 102.916 92.2684 95.9672 92.2684 87.395C92.2684 78.8227 85.3192 71.8735 76.7469 71.8735C68.1747 71.8735 61.2255 78.8227 61.2255 87.395C61.2255 95.9672 68.1747 102.916 76.7469 102.916Z" stroke="#00768F" stroke-miterlimit="10"/>
<path d="M76.7473 54.4028C77.9287 54.403 78.886 55.3611 78.886 56.5425C78.8858 57.7237 77.9285 58.681 76.7473 58.6812C75.5659 58.6812 74.6079 57.7238 74.6077 56.5425C74.6077 55.361 75.5658 54.4028 76.7473 54.4028Z" fill="#00768F" stroke="#00768F"/>
</svg>
