<svg id="Layer_1" data-name="Layer 1" xmlns="http://www.w3.org/2000/svg" viewBox="0 0 153.49394 153.49399"><defs><style>.cls-1{fill:#293963;}.cls-2,.cls-3{fill:none;stroke-miterlimit:10;}.cls-2{stroke:#fff;}.cls-3{stroke:#f3f4f5;stroke-width:2px;}.cls-4{fill:#fff;}</style></defs><rect class="cls-1" y="0.00005" width="153.49394" height="153.49394"/><circle class="cls-2" cx="76.74697" cy="76.80223" r="60.99897"/><path class="cls-3" d="M94.369,71.26463c-.804-.96585-3.76538-4.2002-4.63745-5.111a1.79107,1.79107,0,0,0-1.44385-.43869c-4.78515.00217-9.57031.02683-14.355-.01974A4.23676,4.23676,0,0,0,71.34262,66.754c-1.68359,1.2236-3.3103,2.52575-4.96093,3.795a12.87265,12.87265,0,0,1-4.8086,1.87015c-1.71826.45105-3.33081,1.1709-5.033,1.63449a4.76888,4.76888,0,0,1-.998.26019c-.99.04224-1.35376.55475-1.38013,1.50644-.05884,2.12018-.02148,2.18414,2.12134,2.18567.60888.00043,1.218-.001,1.8269.0003,1.7395.00373,2.00586.24543,2.051,2.041a3.32685,3.32685,0,0,0,.99756,2.71375,4.13494,4.13494,0,0,0,4.45922.8413A3.51017,3.51017,0,0,0,67.75888,80.29c.1189-1.76636.11377-1.7714,1.88208-1.7721,5.52442-.00213,11.04932.03,16.57325-.02319,1.25976-.01215,1.678.40567,1.64209,1.65555-.06421,2.23108.97216,3.31708,2.98559,3.34512,2.74976.03833,4.23682-1.10788,4.33594-3.34228.00195-.04346.001-.087.0022-.13047.09839-3.33026.09839-3.33044,3.49536-3.33319,1.479-.00122,2.95849-.01968,4.437.005a1.22726,1.22726,0,0,0,.9563-.29233,1.18951,1.18951,0,0,0,.2312-.855A33.07726,33.07726,0,0,0,90.01181,50.49024a29.977,29.977,0,0,0-11.89209-4.20443,29.66062,29.66062,0,0,0-18.70239,4.16308A30.69027,30.69027,0,0,0,46.26474,67.96452a29.09518,29.09518,0,0,0,4.27661,25.64355A30.53491,30.53491,0,0,0,74.891,106.19172c9.0586-.0437,17.41626-4.75482,17.20264-6.67441a5.64759,5.64759,0,0,0-.41479-1.23981c-2.00391-2.85226-1.95874-2.87969.8999-4.88458q1.22571-.85964,2.42358-1.75873c.29737-.22366.67139-.45559.94824-.23693.95191.75155,1.59156.08151,2.28907-.40216.78466-.544,1.55249-1.114,2.35522-1.62974a1.77938,1.77938,0,0,1,2.54321.27845,1.95858,1.95858,0,0,1-.59643,2.6387c-.93237.70505-1.85791,1.42563-2.83936,2.05753-.80883.52081-.70483,1.0953-.29541,1.767a3.02767,3.02767,0,0,0,.2295.31592c2.2456,2.79547,1.552,2.79163,4.62622.5734a14.50707,14.50707,0,0,1,1.62573-1.066,1.768,1.768,0,0,1,2.31811.60611c.58667.72348.23975,1.43881-.37133,2.07446a17.96988,17.96988,0,0,1-3.1543,2.50827c-.67261.44193-1.10523.83637-.43482,1.63062.39136.46353.18311.883-.27783,1.20727-1.49121,1.049-2.98388,2.09564-4.46533,3.15824a1.11808,1.11808,0,0,1-1.76636-.37c-.53711-.75381-1.8103-2.59225-3.457-5.08456"/><path class="cls-4" d="M137.86178,58.90791a65.50233,65.50233,0,0,0-37.813-40.58442c-3.5678-1.46832-5.12226,4.33406-1.595,5.78567A59.0441,59.0441,0,0,1,132.0761,60.503c1.19213,3.65505,6.98782,2.09071,5.78568-1.595Z"/></svg>