<svg id="Layer_1" data-name="Layer 1" xmlns="http://www.w3.org/2000/svg" viewBox="0 0 153.49394 153.49399"><defs><style>.cls-1{fill:#293963;}.cls-2{fill:none;stroke:#fff;stroke-miterlimit:10;}.cls-3{fill:#fff;}</style></defs><rect class="cls-1" y="0.00005" width="153.49394" height="153.49394"/><circle class="cls-2" cx="76.74697" cy="76.80223" r="60.99897"/><path class="cls-3" d="M137.87494,58.97281a65.5023,65.5023,0,0,0-37.813-40.58442c-3.5678-1.46832-5.12225,4.334-1.595,5.78567a59.04407,59.04407,0,0,1,33.6224,36.39378c1.19212,3.65505,6.98781,2.09071,5.78567-1.595Z"/><rect class="cls-2" x="49.00474" y="40.52578" width="55.48446" height="72.44244" rx="10.40732"/><path class="cls-3" d="M66.7194,104.67307H86.77455a1.83683,1.83683,0,0,0,0-3.67147H66.7194a1.83683,1.83683,0,0,0,0,3.67147Z"/><rect class="cls-2" x="52.76012" y="45.42893" width="47.97369" height="62.63612" rx="5.99901"/></svg>