<svg width="154" height="154" viewBox="0 0 154 154" fill="none" xmlns="http://www.w3.org/2000/svg">
<path d="M76.9999 138.255C110.8 138.255 138.2 110.855 138.2 77.0553C138.2 43.2555 110.8 15.8553 76.9999 15.8553C43.2001 15.8553 15.7999 43.2555 15.7999 77.0553C15.7999 110.855 43.2001 138.255 76.9999 138.255Z" stroke="#00768F" stroke-miterlimit="10"/>
<path d="M94.6802 71.4995C93.8735 70.5304 90.9024 67.2854 90.0274 66.3716C89.8326 66.1973 89.602 66.0676 89.3518 65.9916C89.1016 65.9155 88.8378 65.895 88.5788 65.9315C83.7779 65.9337 78.977 65.9584 74.1765 65.9117C73.215 65.9613 72.2988 66.3358 71.5779 66.974C69.8888 68.2016 68.2567 69.5081 66.6006 70.7815C65.1356 71.7261 63.4945 72.3644 61.7762 72.6578C60.0523 73.1103 58.4344 73.8326 56.7266 74.2977C56.4032 74.4206 56.0675 74.5082 55.7253 74.5587C54.732 74.6011 54.3671 75.1153 54.3406 76.0701C54.2816 78.1973 54.3191 78.2615 56.469 78.263C57.0798 78.2634 57.691 78.262 58.3019 78.2633C60.0471 78.267 60.3144 78.5095 60.3596 80.311C60.3109 80.8109 60.3755 81.3154 60.5488 81.7868C60.7221 82.2582 60.9996 82.6844 61.3605 83.0337C61.9427 83.5953 62.6764 83.9743 63.4713 84.1243C64.2662 84.2743 65.0876 84.1886 65.8344 83.8778C66.4841 83.6028 67.0362 83.1389 67.4192 82.5464C67.8022 81.9538 67.9984 81.2599 67.9824 80.5546C68.1017 78.7824 68.0965 78.7773 69.8706 78.7766C75.4133 78.7745 80.9564 78.8067 86.4985 78.7534C87.7624 78.7412 88.182 79.1604 88.146 80.4144C88.0816 82.6528 89.1214 83.7424 91.1414 83.7705C93.9003 83.809 95.3922 82.659 95.4917 80.4172C95.4936 80.3736 95.4927 80.3299 95.4939 80.2863C95.5926 76.9451 95.5926 76.9449 99.0008 76.9422C100.485 76.9409 101.969 76.9224 103.452 76.9472C103.624 76.9684 103.798 76.9532 103.963 76.9027C104.129 76.8521 104.281 76.7674 104.412 76.6539C104.597 76.4085 104.68 76.1012 104.644 75.7961C104.308 70.7952 102.844 65.9354 100.361 61.5815C97.8781 57.2275 94.4414 53.4924 90.3086 50.6566C86.6757 48.4202 82.6086 46.9823 78.3773 46.4383C71.8328 45.7164 65.2337 47.1854 59.6133 50.6151C53.2029 54.6504 48.5047 60.907 46.4174 68.1885C45.0887 72.516 44.7846 77.0932 45.5293 81.5584C46.274 86.0236 48.0469 90.2544 50.7081 93.9165C53.5147 97.7791 57.1853 100.932 61.4269 103.124C65.6685 105.316 70.3638 106.487 75.138 106.542C84.2264 106.498 92.6116 101.771 92.3973 99.8453C92.3072 99.4159 92.1676 98.9985 91.9812 98.6014C89.9706 95.7397 90.016 95.7122 92.884 93.7007C93.7039 93.1257 94.5144 92.5375 95.3156 91.9362C95.6139 91.7118 95.9892 91.4791 96.267 91.6985C97.222 92.4525 97.8638 91.7802 98.5636 91.295C99.3508 90.7492 100.121 90.1773 100.927 89.6599C101.111 89.5068 101.324 89.3924 101.553 89.3235C101.783 89.2545 102.024 89.2324 102.262 89.2585C102.5 89.2845 102.73 89.3582 102.939 89.4752C103.148 89.5921 103.331 89.7499 103.478 89.9392C103.738 90.3728 103.821 90.8898 103.709 91.3828C103.598 91.8759 103.301 92.307 102.88 92.5866C101.944 93.294 101.016 94.017 100.031 94.6509C99.2195 95.1735 99.3239 95.7498 99.7346 96.4238C99.8045 96.5343 99.8814 96.6401 99.9649 96.7407C102.218 99.5454 101.522 99.5415 104.606 97.316C105.126 96.9234 105.67 96.5661 106.237 96.2465C106.631 96.0374 107.088 95.9838 107.519 96.0965C107.95 96.2092 108.323 96.4798 108.563 96.8546C109.152 97.5805 108.804 98.2982 108.191 98.9359C107.233 99.8908 106.172 100.735 105.026 101.452C104.351 101.896 103.917 102.292 104.59 103.088C104.982 103.553 104.773 103.974 104.311 104.3C102.815 105.352 101.317 106.402 99.8309 107.468C99.6998 107.586 99.5427 107.672 99.3724 107.718C99.202 107.763 99.0233 107.769 98.8506 107.732C98.678 107.696 98.5163 107.62 98.3787 107.509C98.2411 107.399 98.1315 107.258 98.0587 107.097C97.5199 106.341 96.2425 104.496 94.5903 101.996" stroke="#00768F" stroke-width="2.00659" stroke-miterlimit="10"/>
<path d="M98.3813 18.8936C98.8251 18.6237 99.424 18.5337 100.187 18.8476L100.191 18.8495C109.04 22.4202 116.998 27.8892 123.503 34.8709C130.008 41.8527 134.902 50.1772 137.839 59.2567V59.2576C138.096 60.0469 137.972 60.6799 137.665 61.1555C137.349 61.6444 136.81 62.0089 136.182 62.1803C134.999 62.5031 133.662 62.1182 133.092 60.8194L132.988 60.547C130.324 52.3115 125.902 44.753 120.029 38.3952C114.155 32.0373 106.969 27.0316 98.9701 23.7249H98.9691C97.4902 23.1163 97.0466 21.5926 97.3927 20.3192C97.5643 19.6877 97.92 19.1741 98.3813 18.8936Z" fill="#00768F" stroke="#00768F"/>
</svg>
