<svg width="154" height="154" viewBox="0 0 154 154" fill="none" xmlns="http://www.w3.org/2000/svg">
<path d="M76.9999 138.255C110.8 138.255 138.2 110.855 138.2 77.0553C138.2 43.2555 110.8 15.8553 76.9999 15.8553C43.2001 15.8553 15.7999 43.2555 15.7999 77.0553C15.7999 110.855 43.2001 138.255 76.9999 138.255Z" stroke="#00768F" stroke-miterlimit="10"/>
<path d="M94.6413 106.365C93.8123 106.399 92.9854 106.258 92.2142 105.952C91.443 105.645 90.7447 105.181 90.1644 104.588C86.6917 101.121 83.2205 97.6534 79.7506 94.1842C79.139 93.5807 78.7679 92.7752 78.7065 91.918C78.5673 90.6307 77.9706 89.436 77.0251 88.5513C76.0796 87.6665 74.8479 87.1505 73.5541 87.097C73.087 87.047 72.6411 86.8753 72.2611 86.5991C71.881 86.3228 71.5801 85.9517 71.3883 85.5228C71.1965 85.0939 71.1206 84.6222 71.1681 84.1548C71.2157 83.6874 71.385 83.2406 71.6591 82.8591C72.0893 82.3473 72.5506 81.8624 73.0403 81.4073C73.5619 80.869 73.5652 80.8034 73.0447 80.2693C70.0768 77.2243 67.1083 74.1798 64.1394 71.1358C61.6521 68.5808 59.1689 66.0218 56.6898 63.4588C56.1104 62.8598 55.3601 62.4544 54.5416 62.298C53.9226 62.1789 53.3544 61.8746 52.9123 61.4254C51.3886 59.6385 49.9514 57.7767 48.5085 55.9222C48.3991 55.8108 48.3147 55.6774 48.2608 55.5309C48.2068 55.3844 48.1847 55.2281 48.1957 55.0723C48.2068 54.9166 48.2509 54.765 48.325 54.6276C48.3991 54.4902 48.5016 54.3701 48.6257 54.2753C48.9762 53.9101 49.3344 53.5524 49.7004 53.2022C49.7957 53.0853 49.9139 52.9891 50.0477 52.9196C50.1815 52.8501 50.3281 52.8086 50.4785 52.7978C50.629 52.787 50.78 52.8071 50.9224 52.8569C51.0647 52.9066 51.1954 52.9849 51.3064 53.087C53.1569 54.5339 54.9943 55.9975 56.8185 57.4778C57.3494 57.931 57.6852 58.5713 57.7562 59.2657C57.8449 59.9704 58.1771 60.6219 58.6955 61.1074C64.3756 66.6329 70.0498 72.1644 75.7182 77.7019C76.0995 78.0747 76.3766 78.1179 76.7428 77.7017C77.1001 77.2958 77.503 76.9287 77.8976 76.5569C78.2339 76.1849 78.6731 75.9211 79.1595 75.7989C79.6459 75.6767 80.1577 75.7016 80.6299 75.8705C81.1733 76.032 81.6512 76.3624 81.9942 76.8137C82.3372 77.2651 82.5275 77.8141 82.5375 78.3809C82.61 79.573 83.0883 80.7045 83.8929 81.5871C84.6975 82.4697 85.78 83.0503 86.9604 83.2324C88.1473 83.3852 89.2441 83.9463 90.0624 84.8196C93.2797 88.1106 96.5465 91.3535 99.8178 94.5912C100.905 95.5676 101.593 96.912 101.747 98.3652C101.825 99.0621 101.752 99.7673 101.533 100.434C101.315 101.1 100.957 101.712 100.483 102.228C99.4317 103.369 98.3095 104.442 97.1229 105.442C96.4229 106.02 95.5488 106.345 94.6413 106.365Z" stroke="#00768F" stroke-miterlimit="10"/>
<path d="M71.5098 73.5917C73.5972 71.5324 77.8955 67.3261 79.9923 65.2765C80.4818 64.8454 80.8425 64.2872 81.0343 63.6638C81.2261 63.0403 81.2415 62.3759 81.0788 61.7442C80.7762 60.0049 80.9133 58.2175 81.4776 56.5446C82.1612 54.1441 83.5747 52.0156 85.5221 50.4544C86.8247 49.3648 88.3411 48.5604 89.9737 48.093C91.6063 47.6256 93.3187 47.5056 95.0005 47.7408C97.2045 48.0035 99.2908 48.8786 101.023 50.2669C101.189 50.3989 101.334 50.5572 101.605 50.8135C100.994 51.1474 100.132 51.6242 99.1073 52.2104C93.6073 55.3557 92.916 56.2172 92.4942 57.0267C92.1106 57.6946 91.8814 58.4398 91.8233 59.2077C91.7652 59.9757 91.8798 60.7469 92.1587 61.4648C92.5018 62.1202 93.0012 62.6808 93.6127 63.0972C94.2241 63.5135 94.9288 63.7726 95.6643 63.8517C98.1892 64.0708 101.606 61.8374 105.069 59.5739C105.175 59.5047 105.482 59.3029 105.665 59.4115C105.772 59.4746 105.808 59.6567 105.808 59.9815C105.852 61.9626 105.411 63.9244 104.523 65.6958C103.635 67.4673 102.327 68.9946 100.713 70.1445C99.3927 71.1528 97.8762 71.8741 96.2607 72.2622C94.6453 72.6503 92.9666 72.6965 91.3322 72.398C90.9589 72.3394 90.5954 72.1908 90.2216 72.1647C89.805 72.1331 89.3866 72.1941 88.9963 72.3433C88.6061 72.4924 88.2536 72.726 87.9642 73.0273C87.8084 73.181 87.5841 73.4024 87.2994 73.6852C87.0349 73.9483 86.5577 74.4648 85.7107 75.3427C85.4134 75.6509 85.0146 76.0721 84.4551 76.6423C84.0456 77.0599 83.4518 77.658 82.7121 78.3767" stroke="#00768F" stroke-width="1.0033" stroke-miterlimit="10"/>
<path d="M73.8819 87.1212C72.6288 88.3546 69.3647 91.6186 68.1773 92.8032C64.9149 96.058 61.6554 99.3158 58.399 102.577C57.8857 103.109 57.2713 103.534 56.5918 103.826C55.9123 104.118 55.1814 104.272 54.4417 104.279C53.7021 104.285 52.9686 104.144 52.2841 103.863C51.5997 103.583 50.9781 103.169 50.4556 102.645C49.9331 102.122 49.5203 101.499 49.2413 100.814C48.9623 100.129 48.8227 99.3953 48.8306 98.6557C48.8386 97.916 48.994 97.1854 49.2877 96.5066C49.5814 95.8277 50.0076 95.2142 50.5412 94.702C54.5165 90.7694 58.4568 86.8015 62.4106 82.8472C63.9076 81.3501 67.4104 77.5245 68.9078 76.0278" stroke="#00768F" stroke-width="1.0033" stroke-miterlimit="10"/>
<path d="M131.644 98.3279C132.252 96.849 133.776 96.4053 135.05 96.7514C135.681 96.9231 136.195 97.2788 136.475 97.74C136.745 98.1839 136.834 98.7827 136.52 99.5457L136.519 99.5497C132.949 108.399 127.479 116.357 120.498 122.862C113.516 129.367 105.192 134.261 96.1121 137.198H96.1111C95.3219 137.455 94.6888 137.331 94.2133 137.023C93.7243 136.707 93.3598 136.169 93.1884 135.541C92.8442 134.279 93.3041 132.842 94.8198 132.347L94.8207 132.348C103.057 129.684 110.615 125.261 116.973 119.387C123.331 113.514 128.336 106.328 131.643 98.3289L131.644 98.3279Z" fill="#00768F" stroke="#00768F"/>
</svg>
