<svg id="Layer_1" data-name="Layer 1" xmlns="http://www.w3.org/2000/svg" viewBox="0 0 153.49394 153.49399"><defs><style>.cls-1{fill:#293963;}.cls-2,.cls-4,.cls-5{fill:none;stroke:#fff;stroke-miterlimit:10;}.cls-3{fill:#fff;}.cls-4{stroke-width:2px;}.cls-5{stroke-width:1.2673px;}</style></defs><rect class="cls-1" y="0.00005" width="153.49394" height="153.49394"/><circle class="cls-2" cx="76.74697" cy="76.80223" r="60.99897"/><path class="cls-3" d="M15.38067,96.55673a65.5023,65.5023,0,0,0,37.813,40.58442c3.56779,1.46832,5.12225-4.33406,1.595-5.78567A59.0441,59.0441,0,0,1,21.16634,94.96169c-1.19213-3.65505-6.98781-2.09071-5.78567,1.595Z"/><rect class="cls-2" x="67.80163" y="44.80778" width="17.89068" height="13.89219"/><rect class="cls-2" x="72.71629" y="91.89631" width="8.06136" height="17.42476"/><rect class="cls-2" x="63.9842" y="58.69997" width="25.52554" height="33.19633" rx="2.83465"/><line class="cls-4" x1="76.74697" y1="109.32107" x2="76.74697" y2="137.8012"/><line class="cls-5" x1="80.09813" y1="46.79763" x2="80.09813" y2="50.75352"/><line class="cls-5" x1="75.63442" y1="46.79763" x2="75.63442" y2="50.75352"/><line class="cls-5" x1="71.1707" y1="46.79763" x2="71.1707" y2="50.75352"/><line class="cls-5" x1="82.32324" y1="46.79763" x2="82.32324" y2="50.75352"/><line class="cls-5" x1="77.85953" y1="46.79763" x2="77.85953" y2="50.75352"/><line class="cls-5" x1="73.39581" y1="46.79763" x2="73.39581" y2="50.75352"/></svg>